<?xml version="1.0" standalone="no"?><svg xmlns="http://www.w3.org/2000/svg" viewBox="0 0 1440 320"><path fill="#0A043C" fill-opacity="1" d="M0,192L12.6,165.3C25.3,139,51,85,76,53.3C101.1,21,126,11,152,21.3C176.8,32,202,64,227,74.7C252.6,85,278,75,303,85.3C328.4,96,354,128,379,144C404.2,160,429,160,455,154.7C480,149,505,139,531,128C555.8,117,581,107,606,112C631.6,117,657,139,682,138.7C707.4,139,733,117,758,112C783.2,107,808,117,834,138.7C858.9,160,884,192,909,170.7C934.7,149,960,75,985,53.3C1010.5,32,1036,64,1061,69.3C1086.3,75,1112,53,1137,58.7C1162.1,64,1187,96,1213,101.3C1237.9,107,1263,85,1288,112C1313.7,139,1339,213,1364,218.7C1389.5,224,1415,160,1427,128L1440,96L1440,320L1427.4,320C1414.7,320,1389,320,1364,320C1338.9,320,1314,320,1288,320C1263.2,320,1238,320,1213,320C1187.4,320,1162,320,1137,320C1111.6,320,1086,320,1061,320C1035.8,320,1011,320,985,320C960,320,935,320,909,320C884.2,320,859,320,834,320C808.4,320,783,320,758,320C732.6,320,707,320,682,320C656.8,320,632,320,606,320C581.1,320,556,320,531,320C505.3,320,480,320,455,320C429.5,320,404,320,379,320C353.7,320,328,320,303,320C277.9,320,253,320,227,320C202.1,320,177,320,152,320C126.3,320,101,320,76,320C50.5,320,25,320,13,320L0,320Z"></path></svg>